<?xml version="1.0" standalone="no"?>
<!DOCTYPE svg PUBLIC "-//W3C//DTD SVG 20010904//EN"
 "http://www.w3.org/TR/2001/REC-SVG-20010904/DTD/svg10.dtd">
<svg version="1.0" xmlns="http://www.w3.org/2000/svg"
 width="300.000000pt" height="300.000000pt" viewBox="0 0 300.000000 300.000000"
 preserveAspectRatio="xMidYMid meet">
<metadata>
Created by potrace 1.11, written by Peter Selinger 2001-2013
</metadata>
<g transform="translate(0.000000,300.000000) scale(0.100000,-0.100000)"
fill="#000000" stroke="none">
<path d="M0 1500 l0 -1000 1500 0 1500 0 0 1000 0 1000 -295 0 c-162 0 -295
-3 -295 -7 0 -5 14 -24 30 -43 45 -53 99 -169 116 -251 24 -114 11 -286 -26
-351 -6 -10 -10 -24 -10 -31 0 -26 -102 -167 -157 -216 -114 -101 -248 -154
-398 -155 l-100 -1 -21 -40 c-11 -22 -85 -166 -164 -320 -258 -505 -295 -575
-300 -575 -3 0 -54 96 -113 213 -59 116 -154 302 -211 412 -56 110 -165 322
-241 470 -76 149 -175 342 -220 430 -45 88 -117 229 -160 313 l-78 152 -178 0
-179 0 0 -1000z"/>
</g>
</svg>
